<svg xmlns="http://www.w3.org/2000/svg" width="400" height="400" viewBox="0 0 400 400"><rect width="100%" height="100%" fill="#ffffff"/><g fill="#000000"><rect x="143.5897435897436" y="10.256410256410257" width="10.756410256410257" height="10.756410256410257"/><rect x="164.10256410256412" y="10.256410256410257" width="10.756410256410257" height="10.756410256410257"/><rect x="174.35897435897436" y="10.256410256410257" width="10.756410256410257" height="10.756410256410257"/><rect x="205.12820512820514" y="10.256410256410257" width="10.756410256410257" height="10.756410256410257"/><rect x="215.38461538461542" y="10.256410256410257" width="10.756410256410257" height="10.756410256410257"/><rect x="235.8974358974359" y="10.256410256410257" width="10.756410256410257" height="10.756410256410257"/><rect x="246.1538461538462" y="10.256410256410257" width="10.756410256410257" height="10.756410256410257"/><rect x="256.4102564102564" y="10.256410256410257" width="10.756410256410257" height="10.756410256410257"/><rect x="266.6666666666667" y="10.256410256410257" width="10.756410256410257" height="10.756410256410257"/><rect x="123.0769230769231" y="20.512820512820515" width="10.756410256410257" height="10.756410256410257"/><rect x="133.33333333333334" y="20.512820512820515" width="10.756410256410257" height="10.756410256410257"/><rect x="143.5897435897436" y="20.512820512820515" width="10.756410256410257" height="10.756410256410257"/><rect x="153.84615384615387" y="20.512820512820515" width="10.756410256410257" height="10.756410256410257"/><rect x="174.35897435897436" y="20.512820512820515" width="10.756410256410257" height="10.756410256410257"/><rect x="184.61538461538464" y="20.512820512820515" width="10.756410256410257" height="10.756410256410257"/><rect x="205.12820512820514" y="20.512820512820515" width="10.756410256410257" height="10.756410256410257"/><rect x="215.38461538461542" y="20.512820512820515" width="10.756410256410257" height="10.756410256410257"/><rect x="266.6666666666667" y="20.512820512820515" width="10.756410256410257" height="10.756410256410257"/><rect x="143.5897435897436" y="30.769230769230774" width="10.756410256410257" height="10.756410256410257"/><rect x="153.84615384615387" y="30.769230769230774" width="10.756410256410257" height="10.756410256410257"/><rect x="164.10256410256412" y="30.769230769230774" width="10.756410256410257" height="10.756410256410257"/><rect x="184.61538461538464" y="30.769230769230774" width="10.756410256410257" height="10.756410256410257"/><rect x="194.8717948717949" y="30.769230769230774" width="10.756410256410257" height="10.756410256410257"/><rect x="205.12820512820514" y="30.769230769230774" width="10.756410256410257" height="10.756410256410257"/><rect x="215.38461538461542" y="30.769230769230774" width="10.756410256410257" height="10.756410256410257"/><rect x="235.8974358974359" y="30.769230769230774" width="10.756410256410257" height="10.756410256410257"/><rect x="256.4102564102564" y="30.769230769230774" width="10.756410256410257" height="10.756410256410257"/><rect x="266.6666666666667" y="30.769230769230774" width="10.756410256410257" height="10.756410256410257"/><rect x="276.92307692307696" y="30.769230769230774" width="10.756410256410257" height="10.756410256410257"/><rect x="102.56410256410257" y="41.02564102564103" width="10.756410256410257" height="10.756410256410257"/><rect x="112.82051282051283" y="41.02564102564103" width="10.756410256410257" height="10.756410256410257"/><rect x="123.0769230769231" y="41.02564102564103" width="10.756410256410257" height="10.756410256410257"/><rect x="133.33333333333334" y="41.02564102564103" width="10.756410256410257" height="10.756410256410257"/><rect x="153.84615384615387" y="41.02564102564103" width="10.756410256410257" height="10.756410256410257"/><rect x="164.10256410256412" y="41.02564102564103" width="10.756410256410257" height="10.756410256410257"/><rect x="235.8974358974359" y="41.02564102564103" width="10.756410256410257" height="10.756410256410257"/><rect x="266.6666666666667" y="41.02564102564103" width="10.756410256410257" height="10.756410256410257"/><rect x="276.92307692307696" y="41.02564102564103" width="10.756410256410257" height="10.756410256410257"/><rect x="287.1794871794872" y="41.02564102564103" width="10.756410256410257" height="10.756410256410257"/><rect x="92.30769230769232" y="51.282051282051285" width="10.756410256410257" height="10.756410256410257"/><rect x="102.56410256410257" y="51.282051282051285" width="10.756410256410257" height="10.756410256410257"/><rect x="112.82051282051283" y="51.282051282051285" width="10.756410256410257" height="10.756410256410257"/><rect x="133.33333333333334" y="51.282051282051285" width="10.756410256410257" height="10.756410256410257"/><rect x="143.5897435897436" y="51.282051282051285" width="10.756410256410257" height="10.756410256410257"/><rect x="164.10256410256412" y="51.282051282051285" width="10.756410256410257" height="10.756410256410257"/><rect x="184.61538461538464" y="51.282051282051285" width="10.756410256410257" height="10.756410256410257"/><rect x="215.38461538461542" y="51.282051282051285" width="10.756410256410257" height="10.756410256410257"/><rect x="235.8974358974359" y="51.282051282051285" width="10.756410256410257" height="10.756410256410257"/><rect x="276.92307692307696" y="51.282051282051285" width="10.756410256410257" height="10.756410256410257"/><rect x="287.1794871794872" y="51.282051282051285" width="10.756410256410257" height="10.756410256410257"/><rect x="102.56410256410257" y="61.53846153846155" width="10.756410256410257" height="10.756410256410257"/><rect x="133.33333333333334" y="61.53846153846155" width="10.756410256410257" height="10.756410256410257"/><rect x="153.84615384615387" y="61.53846153846155" width="10.756410256410257" height="10.756410256410257"/><rect x="174.35897435897436" y="61.53846153846155" width="10.756410256410257" height="10.756410256410257"/><rect x="184.61538461538464" y="61.53846153846155" width="10.756410256410257" height="10.756410256410257"/><rect x="194.8717948717949" y="61.53846153846155" width="10.756410256410257" height="10.756410256410257"/><rect x="225.64102564102566" y="61.53846153846155" width="10.756410256410257" height="10.756410256410257"/><rect x="235.8974358974359" y="61.53846153846155" width="10.756410256410257" height="10.756410256410257"/><rect x="246.1538461538462" y="61.53846153846155" width="10.756410256410257" height="10.756410256410257"/><rect x="256.4102564102564" y="61.53846153846155" width="10.756410256410257" height="10.756410256410257"/><rect x="276.92307692307696" y="61.53846153846155" width="10.756410256410257" height="10.756410256410257"/><rect x="92.30769230769232" y="71.7948717948718" width="10.756410256410257" height="10.756410256410257"/><rect x="112.82051282051283" y="71.7948717948718" width="10.756410256410257" height="10.756410256410257"/><rect x="133.33333333333334" y="71.7948717948718" width="10.756410256410257" height="10.756410256410257"/><rect x="153.84615384615387" y="71.7948717948718" width="10.756410256410257" height="10.756410256410257"/><rect x="174.35897435897436" y="71.7948717948718" width="10.756410256410257" height="10.756410256410257"/><rect x="194.8717948717949" y="71.7948717948718" width="10.756410256410257" height="10.756410256410257"/><rect x="215.38461538461542" y="71.7948717948718" width="10.756410256410257" height="10.756410256410257"/><rect x="235.8974358974359" y="71.7948717948718" width="10.756410256410257" height="10.756410256410257"/><rect x="256.4102564102564" y="71.7948717948718" width="10.756410256410257" height="10.756410256410257"/><rect x="276.92307692307696" y="71.7948717948718" width="10.756410256410257" height="10.756410256410257"/><rect x="297.43589743589746" y="71.7948717948718" width="10.756410256410257" height="10.756410256410257"/><rect x="92.30769230769232" y="82.05128205128206" width="10.756410256410257" height="10.756410256410257"/><rect x="112.82051282051283" y="82.05128205128206" width="10.756410256410257" height="10.756410256410257"/><rect x="143.5897435897436" y="82.05128205128206" width="10.756410256410257" height="10.756410256410257"/><rect x="153.84615384615387" y="82.05128205128206" width="10.756410256410257" height="10.756410256410257"/><rect x="164.10256410256412" y="82.05128205128206" width="10.756410256410257" height="10.756410256410257"/><rect x="184.61538461538464" y="82.05128205128206" width="10.756410256410257" height="10.756410256410257"/><rect x="194.8717948717949" y="82.05128205128206" width="10.756410256410257" height="10.756410256410257"/><rect x="205.12820512820514" y="82.05128205128206" width="10.756410256410257" height="10.756410256410257"/><rect x="246.1538461538462" y="82.05128205128206" width="10.756410256410257" height="10.756410256410257"/><rect x="256.4102564102564" y="82.05128205128206" width="10.756410256410257" height="10.756410256410257"/><rect x="287.1794871794872" y="82.05128205128206" width="10.756410256410257" height="10.756410256410257"/><rect x="297.43589743589746" y="82.05128205128206" width="10.756410256410257" height="10.756410256410257"/><rect x="30.769230769230774" y="92.30769230769232" width="10.756410256410257" height="10.756410256410257"/><rect x="41.02564102564103" y="92.30769230769232" width="10.756410256410257" height="10.756410256410257"/><rect x="71.7948717948718" y="92.30769230769232" width="10.756410256410257" height="10.756410256410257"/><rect x="82.05128205128206" y="92.30769230769232" width="10.756410256410257" height="10.756410256410257"/><rect x="92.30769230769232" y="92.30769230769232" width="10.756410256410257" height="10.756410256410257"/><rect x="102.56410256410257" y="92.30769230769232" width="10.756410256410257" height="10.756410256410257"/><rect x="133.33333333333334" y="92.30769230769232" width="10.756410256410257" height="10.756410256410257"/><rect x="143.5897435897436" y="92.30769230769232" width="10.756410256410257" height="10.756410256410257"/><rect x="153.84615384615387" y="92.30769230769232" width="10.756410256410257" height="10.756410256410257"/><rect x="164.10256410256412" y="92.30769230769232" width="10.756410256410257" height="10.756410256410257"/><rect x="174.35897435897436" y="92.30769230769232" width="10.756410256410257" height="10.756410256410257"/><rect x="184.61538461538464" y="92.30769230769232" width="10.756410256410257" height="10.756410256410257"/><rect x="215.38461538461542" y="92.30769230769232" width="10.756410256410257" height="10.756410256410257"/><rect x="235.8974358974359" y="92.30769230769232" width="10.756410256410257" height="10.756410256410257"/><rect x="246.1538461538462" y="92.30769230769232" width="10.756410256410257" height="10.756410256410257"/><rect x="256.4102564102564" y="92.30769230769232" width="10.756410256410257" height="10.756410256410257"/><rect x="266.6666666666667" y="92.30769230769232" width="10.756410256410257" height="10.756410256410257"/><rect x="276.92307692307696" y="92.30769230769232" width="10.756410256410257" height="10.756410256410257"/><rect x="287.1794871794872" y="92.30769230769232" width="10.756410256410257" height="10.756410256410257"/><rect x="307.69230769230774" y="92.30769230769232" width="10.756410256410257" height="10.756410256410257"/><rect x="317.94871794871796" y="92.30769230769232" width="10.756410256410257" height="10.756410256410257"/><rect x="338.4615384615385" y="92.30769230769232" width="10.756410256410257" height="10.756410256410257"/><rect x="51.282051282051285" y="102.56410256410257" width="10.756410256410257" height="10.756410256410257"/><rect x="82.05128205128206" y="102.56410256410257" width="10.756410256410257" height="10.756410256410257"/><rect x="112.82051282051283" y="102.56410256410257" width="10.756410256410257" height="10.756410256410257"/><rect x="123.0769230769231" y="102.56410256410257" width="10.756410256410257" height="10.756410256410257"/><rect x="143.5897435897436" y="102.56410256410257" width="10.756410256410257" height="10.756410256410257"/><rect x="153.84615384615387" y="102.56410256410257" width="10.756410256410257" height="10.756410256410257"/><rect x="164.10256410256412" y="102.56410256410257" width="10.756410256410257" height="10.756410256410257"/><rect x="174.35897435897436" y="102.56410256410257" width="10.756410256410257" height="10.756410256410257"/><rect x="184.61538461538464" y="102.56410256410257" width="10.756410256410257" height="10.756410256410257"/><rect x="194.8717948717949" y="102.56410256410257" width="10.756410256410257" height="10.756410256410257"/><rect x="215.38461538461542" y="102.56410256410257" width="10.756410256410257" height="10.756410256410257"/><rect x="266.6666666666667" y="102.56410256410257" width="10.756410256410257" height="10.756410256410257"/><rect x="317.94871794871796" y="102.56410256410257" width="10.756410256410257" height="10.756410256410257"/><rect x="328.20512820512823" y="102.56410256410257" width="10.756410256410257" height="10.756410256410257"/><rect x="358.974358974359" y="102.56410256410257" width="10.756410256410257" height="10.756410256410257"/><rect x="51.282051282051285" y="112.82051282051283" width="10.756410256410257" height="10.756410256410257"/><rect x="71.7948717948718" y="112.82051282051283" width="10.756410256410257" height="10.756410256410257"/><rect x="82.05128205128206" y="112.82051282051283" width="10.756410256410257" height="10.756410256410257"/><rect x="92.30769230769232" y="112.82051282051283" width="10.756410256410257" height="10.756410256410257"/><rect x="102.56410256410257" y="112.82051282051283" width="10.756410256410257" height="10.756410256410257"/><rect x="194.8717948717949" y="112.82051282051283" width="10.756410256410257" height="10.756410256410257"/><rect x="205.12820512820514" y="112.82051282051283" width="10.756410256410257" height="10.756410256410257"/><rect x="215.38461538461542" y="112.82051282051283" width="10.756410256410257" height="10.756410256410257"/><rect x="256.4102564102564" y="112.82051282051283" width="10.756410256410257" height="10.756410256410257"/><rect x="266.6666666666667" y="112.82051282051283" width="10.756410256410257" height="10.756410256410257"/><rect x="307.69230769230774" y="112.82051282051283" width="10.756410256410257" height="10.756410256410257"/><rect x="328.20512820512823" y="112.82051282051283" width="10.756410256410257" height="10.756410256410257"/><rect x="338.4615384615385" y="112.82051282051283" width="10.756410256410257" height="10.756410256410257"/><rect x="348.71794871794873" y="112.82051282051283" width="10.756410256410257" height="10.756410256410257"/><rect x="358.974358974359" y="112.82051282051283" width="10.756410256410257" height="10.756410256410257"/><rect x="10.256410256410257" y="123.0769230769231" width="10.756410256410257" height="10.756410256410257"/><rect x="30.769230769230774" y="123.0769230769231" width="10.756410256410257" height="10.756410256410257"/><rect x="41.02564102564103" y="123.0769230769231" width="10.756410256410257" height="10.756410256410257"/><rect x="61.53846153846155" y="123.0769230769231" width="10.756410256410257" height="10.756410256410257"/><rect x="112.82051282051283" y="123.0769230769231" width="10.756410256410257" height="10.756410256410257"/><rect x="123.0769230769231" y="123.0769230769231" width="10.756410256410257" height="10.756410256410257"/><rect x="133.33333333333334" y="123.0769230769231" width="10.756410256410257" height="10.756410256410257"/><rect x="143.5897435897436" y="123.0769230769231" width="10.756410256410257" height="10.756410256410257"/><rect x="164.10256410256412" y="123.0769230769231" width="10.756410256410257" height="10.756410256410257"/><rect x="174.35897435897436" y="123.0769230769231" width="10.756410256410257" height="10.756410256410257"/><rect x="246.1538461538462" y="123.0769230769231" width="10.756410256410257" height="10.756410256410257"/><rect x="256.4102564102564" y="123.0769230769231" width="10.756410256410257" height="10.756410256410257"/><rect x="266.6666666666667" y="123.0769230769231" width="10.756410256410257" height="10.756410256410257"/><rect x="276.92307692307696" y="123.0769230769231" width="10.756410256410257" height="10.756410256410257"/><rect x="287.1794871794872" y="123.0769230769231" width="10.756410256410257" height="10.756410256410257"/><rect x="297.43589743589746" y="123.0769230769231" width="10.756410256410257" height="10.756410256410257"/><rect x="358.974358974359" y="123.0769230769231" width="10.756410256410257" height="10.756410256410257"/><rect x="10.256410256410257" y="133.33333333333334" width="10.756410256410257" height="10.756410256410257"/><rect x="30.769230769230774" y="133.33333333333334" width="10.756410256410257" height="10.756410256410257"/><rect x="61.53846153846155" y="133.33333333333334" width="10.756410256410257" height="10.756410256410257"/><rect x="71.7948717948718" y="133.33333333333334" width="10.756410256410257" height="10.756410256410257"/><rect x="82.05128205128206" y="133.33333333333334" width="10.756410256410257" height="10.756410256410257"/><rect x="112.82051282051283" y="133.33333333333334" width="10.756410256410257" height="10.756410256410257"/><rect x="123.0769230769231" y="133.33333333333334" width="10.756410256410257" height="10.756410256410257"/><rect x="133.33333333333334" y="133.33333333333334" width="10.756410256410257" height="10.756410256410257"/><rect x="153.84615384615387" y="133.33333333333334" width="10.756410256410257" height="10.756410256410257"/><rect x="164.10256410256412" y="133.33333333333334" width="10.756410256410257" height="10.756410256410257"/><rect x="174.35897435897436" y="133.33333333333334" width="10.756410256410257" height="10.756410256410257"/><rect x="184.61538461538464" y="133.33333333333334" width="10.756410256410257" height="10.756410256410257"/><rect x="205.12820512820514" y="133.33333333333334" width="10.756410256410257" height="10.756410256410257"/><rect x="215.38461538461542" y="133.33333333333334" width="10.756410256410257" height="10.756410256410257"/><rect x="225.64102564102566" y="133.33333333333334" width="10.756410256410257" height="10.756410256410257"/><rect x="246.1538461538462" y="133.33333333333334" width="10.756410256410257" height="10.756410256410257"/><rect x="256.4102564102564" y="133.33333333333334" width="10.756410256410257" height="10.756410256410257"/><rect x="266.6666666666667" y="133.33333333333334" width="10.756410256410257" height="10.756410256410257"/><rect x="276.92307692307696" y="133.33333333333334" width="10.756410256410257" height="10.756410256410257"/><rect x="307.69230769230774" y="133.33333333333334" width="10.756410256410257" height="10.756410256410257"/><rect x="317.94871794871796" y="133.33333333333334" width="10.756410256410257" height="10.756410256410257"/><rect x="338.4615384615385" y="133.33333333333334" width="10.756410256410257" height="10.756410256410257"/><rect x="358.974358974359" y="133.33333333333334" width="10.756410256410257" height="10.756410256410257"/><rect x="379.4871794871795" y="133.33333333333334" width="10.756410256410257" height="10.756410256410257"/><rect x="10.256410256410257" y="143.5897435897436" width="10.756410256410257" height="10.756410256410257"/><rect x="41.02564102564103" y="143.5897435897436" width="10.756410256410257" height="10.756410256410257"/><rect x="51.282051282051285" y="143.5897435897436" width="10.756410256410257" height="10.756410256410257"/><rect x="61.53846153846155" y="143.5897435897436" width="10.756410256410257" height="10.756410256410257"/><rect x="92.30769230769232" y="143.5897435897436" width="10.756410256410257" height="10.756410256410257"/><rect x="102.56410256410257" y="143.5897435897436" width="10.756410256410257" height="10.756410256410257"/><rect x="112.82051282051283" y="143.5897435897436" width="10.756410256410257" height="10.756410256410257"/><rect x="123.0769230769231" y="143.5897435897436" width="10.756410256410257" height="10.756410256410257"/><rect x="133.33333333333334" y="143.5897435897436" width="10.756410256410257" height="10.756410256410257"/><rect x="164.10256410256412" y="143.5897435897436" width="10.756410256410257" height="10.756410256410257"/><rect x="194.8717948717949" y="143.5897435897436" width="10.756410256410257" height="10.756410256410257"/><rect x="205.12820512820514" y="143.5897435897436" width="10.756410256410257" height="10.756410256410257"/><rect x="225.64102564102566" y="143.5897435897436" width="10.756410256410257" height="10.756410256410257"/><rect x="235.8974358974359" y="143.5897435897436" width="10.756410256410257" height="10.756410256410257"/><rect x="246.1538461538462" y="143.5897435897436" width="10.756410256410257" height="10.756410256410257"/><rect x="256.4102564102564" y="143.5897435897436" width="10.756410256410257" height="10.756410256410257"/><rect x="266.6666666666667" y="143.5897435897436" width="10.756410256410257" height="10.756410256410257"/><rect x="287.1794871794872" y="143.5897435897436" width="10.756410256410257" height="10.756410256410257"/><rect x="317.94871794871796" y="143.5897435897436" width="10.756410256410257" height="10.756410256410257"/><rect x="328.20512820512823" y="143.5897435897436" width="10.756410256410257" height="10.756410256410257"/><rect x="338.4615384615385" y="143.5897435897436" width="10.756410256410257" height="10.756410256410257"/><rect x="358.974358974359" y="143.5897435897436" width="10.756410256410257" height="10.756410256410257"/><rect x="379.4871794871795" y="143.5897435897436" width="10.756410256410257" height="10.756410256410257"/><rect x="20.512820512820515" y="153.84615384615387" width="10.756410256410257" height="10.756410256410257"/><rect x="71.7948717948718" y="153.84615384615387" width="10.756410256410257" height="10.756410256410257"/><rect x="92.30769230769232" y="153.84615384615387" width="10.756410256410257" height="10.756410256410257"/><rect x="133.33333333333334" y="153.84615384615387" width="10.756410256410257" height="10.756410256410257"/><rect x="153.84615384615387" y="153.84615384615387" width="10.756410256410257" height="10.756410256410257"/><rect x="184.61538461538464" y="153.84615384615387" width="10.756410256410257" height="10.756410256410257"/><rect x="205.12820512820514" y="153.84615384615387" width="10.756410256410257" height="10.756410256410257"/><rect x="215.38461538461542" y="153.84615384615387" width="10.756410256410257" height="10.756410256410257"/><rect x="276.92307692307696" y="153.84615384615387" width="10.756410256410257" height="10.756410256410257"/><rect x="317.94871794871796" y="153.84615384615387" width="10.756410256410257" height="10.756410256410257"/><rect x="328.20512820512823" y="153.84615384615387" width="10.756410256410257" height="10.756410256410257"/><rect x="338.4615384615385" y="153.84615384615387" width="10.756410256410257" height="10.756410256410257"/><rect x="358.974358974359" y="153.84615384615387" width="10.756410256410257" height="10.756410256410257"/><rect x="369.2307692307693" y="153.84615384615387" width="10.756410256410257" height="10.756410256410257"/><rect x="20.512820512820515" y="164.10256410256412" width="10.756410256410257" height="10.756410256410257"/><rect x="30.769230769230774" y="164.10256410256412" width="10.756410256410257" height="10.756410256410257"/><rect x="41.02564102564103" y="164.10256410256412" width="10.756410256410257" height="10.756410256410257"/><rect x="51.282051282051285" y="164.10256410256412" width="10.756410256410257" height="10.756410256410257"/><rect x="102.56410256410257" y="164.10256410256412" width="10.756410256410257" height="10.756410256410257"/><rect x="164.10256410256412" y="164.10256410256412" width="10.756410256410257" height="10.756410256410257"/><rect x="194.8717948717949" y="164.10256410256412" width="10.756410256410257" height="10.756410256410257"/><rect x="205.12820512820514" y="164.10256410256412" width="10.756410256410257" height="10.756410256410257"/><rect x="256.4102564102564" y="164.10256410256412" width="10.756410256410257" height="10.756410256410257"/><rect x="287.1794871794872" y="164.10256410256412" width="10.756410256410257" height="10.756410256410257"/><rect x="297.43589743589746" y="164.10256410256412" width="10.756410256410257" height="10.756410256410257"/><rect x="307.69230769230774" y="164.10256410256412" width="10.756410256410257" height="10.756410256410257"/><rect x="317.94871794871796" y="164.10256410256412" width="10.756410256410257" height="10.756410256410257"/><rect x="328.20512820512823" y="164.10256410256412" width="10.756410256410257" height="10.756410256410257"/><rect x="338.4615384615385" y="164.10256410256412" width="10.756410256410257" height="10.756410256410257"/><rect x="369.2307692307693" y="164.10256410256412" width="10.756410256410257" height="10.756410256410257"/><rect x="20.512820512820515" y="174.35897435897436" width="10.756410256410257" height="10.756410256410257"/><rect x="30.769230769230774" y="174.35897435897436" width="10.756410256410257" height="10.756410256410257"/><rect x="61.53846153846155" y="174.35897435897436" width="10.756410256410257" height="10.756410256410257"/><rect x="71.7948717948718" y="174.35897435897436" width="10.756410256410257" height="10.756410256410257"/><rect x="82.05128205128206" y="174.35897435897436" width="10.756410256410257" height="10.756410256410257"/><rect x="102.56410256410257" y="174.35897435897436" width="10.756410256410257" height="10.756410256410257"/><rect x="112.82051282051283" y="174.35897435897436" width="10.756410256410257" height="10.756410256410257"/><rect x="123.0769230769231" y="174.35897435897436" width="10.756410256410257" height="10.756410256410257"/><rect x="133.33333333333334" y="174.35897435897436" width="10.756410256410257" height="10.756410256410257"/><rect x="143.5897435897436" y="174.35897435897436" width="10.756410256410257" height="10.756410256410257"/><rect x="174.35897435897436" y="174.35897435897436" width="10.756410256410257" height="10.756410256410257"/><rect x="184.61538461538464" y="174.35897435897436" width="10.756410256410257" height="10.756410256410257"/><rect x="205.12820512820514" y="174.35897435897436" width="10.756410256410257" height="10.756410256410257"/><rect x="235.8974358974359" y="174.35897435897436" width="10.756410256410257" height="10.756410256410257"/><rect x="266.6666666666667" y="174.35897435897436" width="10.756410256410257" height="10.756410256410257"/><rect x="287.1794871794872" y="174.35897435897436" width="10.756410256410257" height="10.756410256410257"/><rect x="297.43589743589746" y="174.35897435897436" width="10.756410256410257" height="10.756410256410257"/><rect x="348.71794871794873" y="174.35897435897436" width="10.756410256410257" height="10.756410256410257"/><rect x="358.974358974359" y="174.35897435897436" width="10.756410256410257" height="10.756410256410257"/><rect x="369.2307692307693" y="174.35897435897436" width="10.756410256410257" height="10.756410256410257"/><rect x="10.256410256410257" y="184.61538461538464" width="10.756410256410257" height="10.756410256410257"/><rect x="30.769230769230774" y="184.61538461538464" width="10.756410256410257" height="10.756410256410257"/><rect x="51.282051282051285" y="184.61538461538464" width="10.756410256410257" height="10.756410256410257"/><rect x="102.56410256410257" y="184.61538461538464" width="10.756410256410257" height="10.756410256410257"/><rect x="143.5897435897436" y="184.61538461538464" width="10.756410256410257" height="10.756410256410257"/><rect x="153.84615384615387" y="184.61538461538464" width="10.756410256410257" height="10.756410256410257"/><rect x="164.10256410256412" y="184.61538461538464" width="10.756410256410257" height="10.756410256410257"/><rect x="205.12820512820514" y="184.61538461538464" width="10.756410256410257" height="10.756410256410257"/><rect x="215.38461538461542" y="184.61538461538464" width="10.756410256410257" height="10.756410256410257"/><rect x="225.64102564102566" y="184.61538461538464" width="10.756410256410257" height="10.756410256410257"/><rect x="246.1538461538462" y="184.61538461538464" width="10.756410256410257" height="10.756410256410257"/><rect x="287.1794871794872" y="184.61538461538464" width="10.756410256410257" height="10.756410256410257"/><rect x="317.94871794871796" y="184.61538461538464" width="10.756410256410257" height="10.756410256410257"/><rect x="348.71794871794873" y="184.61538461538464" width="10.756410256410257" height="10.756410256410257"/><rect x="358.974358974359" y="184.61538461538464" width="10.756410256410257" height="10.756410256410257"/><rect x="379.4871794871795" y="184.61538461538464" width="10.756410256410257" height="10.756410256410257"/><rect x="10.256410256410257" y="194.8717948717949" width="10.756410256410257" height="10.756410256410257"/><rect x="20.512820512820515" y="194.8717948717949" width="10.756410256410257" height="10.756410256410257"/><rect x="30.769230769230774" y="194.8717948717949" width="10.756410256410257" height="10.756410256410257"/><rect x="51.282051282051285" y="194.8717948717949" width="10.756410256410257" height="10.756410256410257"/><rect x="61.53846153846155" y="194.8717948717949" width="10.756410256410257" height="10.756410256410257"/><rect x="71.7948717948718" y="194.8717948717949" width="10.756410256410257" height="10.756410256410257"/><rect x="82.05128205128206" y="194.8717948717949" width="10.756410256410257" height="10.756410256410257"/><rect x="123.0769230769231" y="194.8717948717949" width="10.756410256410257" height="10.756410256410257"/><rect x="143.5897435897436" y="194.8717948717949" width="10.756410256410257" height="10.756410256410257"/><rect x="153.84615384615387" y="194.8717948717949" width="10.756410256410257" height="10.756410256410257"/><rect x="174.35897435897436" y="194.8717948717949" width="10.756410256410257" height="10.756410256410257"/><rect x="184.61538461538464" y="194.8717948717949" width="10.756410256410257" height="10.756410256410257"/><rect x="235.8974358974359" y="194.8717948717949" width="10.756410256410257" height="10.756410256410257"/><rect x="246.1538461538462" y="194.8717948717949" width="10.756410256410257" height="10.756410256410257"/><rect x="256.4102564102564" y="194.8717948717949" width="10.756410256410257" height="10.756410256410257"/><rect x="266.6666666666667" y="194.8717948717949" width="10.756410256410257" height="10.756410256410257"/><rect x="287.1794871794872" y="194.8717948717949" width="10.756410256410257" height="10.756410256410257"/><rect x="317.94871794871796" y="194.8717948717949" width="10.756410256410257" height="10.756410256410257"/><rect x="348.71794871794873" y="194.8717948717949" width="10.756410256410257" height="10.756410256410257"/><rect x="369.2307692307693" y="194.8717948717949" width="10.756410256410257" height="10.756410256410257"/><rect x="379.4871794871795" y="194.8717948717949" width="10.756410256410257" height="10.756410256410257"/><rect x="10.256410256410257" y="205.12820512820514" width="10.756410256410257" height="10.756410256410257"/><rect x="20.512820512820515" y="205.12820512820514" width="10.756410256410257" height="10.756410256410257"/><rect x="41.02564102564103" y="205.12820512820514" width="10.756410256410257" height="10.756410256410257"/><rect x="51.282051282051285" y="205.12820512820514" width="10.756410256410257" height="10.756410256410257"/><rect x="61.53846153846155" y="205.12820512820514" width="10.756410256410257" height="10.756410256410257"/><rect x="82.05128205128206" y="205.12820512820514" width="10.756410256410257" height="10.756410256410257"/><rect x="92.30769230769232" y="205.12820512820514" width="10.756410256410257" height="10.756410256410257"/><rect x="102.56410256410257" y="205.12820512820514" width="10.756410256410257" height="10.756410256410257"/><rect x="123.0769230769231" y="205.12820512820514" width="10.756410256410257" height="10.756410256410257"/><rect x="133.33333333333334" y="205.12820512820514" width="10.756410256410257" height="10.756410256410257"/><rect x="153.84615384615387" y="205.12820512820514" width="10.756410256410257" height="10.756410256410257"/><rect x="215.38461538461542" y="205.12820512820514" width="10.756410256410257" height="10.756410256410257"/><rect x="225.64102564102566" y="205.12820512820514" width="10.756410256410257" height="10.756410256410257"/><rect x="246.1538461538462" y="205.12820512820514" width="10.756410256410257" height="10.756410256410257"/><rect x="256.4102564102564" y="205.12820512820514" width="10.756410256410257" height="10.756410256410257"/><rect x="276.92307692307696" y="205.12820512820514" width="10.756410256410257" height="10.756410256410257"/><rect x="317.94871794871796" y="205.12820512820514" width="10.756410256410257" height="10.756410256410257"/><rect x="328.20512820512823" y="205.12820512820514" width="10.756410256410257" height="10.756410256410257"/><rect x="348.71794871794873" y="205.12820512820514" width="10.756410256410257" height="10.756410256410257"/><rect x="369.2307692307693" y="205.12820512820514" width="10.756410256410257" height="10.756410256410257"/><rect x="379.4871794871795" y="205.12820512820514" width="10.756410256410257" height="10.756410256410257"/><rect x="10.256410256410257" y="215.38461538461542" width="10.756410256410257" height="10.756410256410257"/><rect x="41.02564102564103" y="215.38461538461542" width="10.756410256410257" height="10.756410256410257"/><rect x="61.53846153846155" y="215.38461538461542" width="10.756410256410257" height="10.756410256410257"/><rect x="71.7948717948718" y="215.38461538461542" width="10.756410256410257" height="10.756410256410257"/><rect x="82.05128205128206" y="215.38461538461542" width="10.756410256410257" height="10.756410256410257"/><rect x="102.56410256410257" y="215.38461538461542" width="10.756410256410257" height="10.756410256410257"/><rect x="112.82051282051283" y="215.38461538461542" width="10.756410256410257" height="10.756410256410257"/><rect x="133.33333333333334" y="215.38461538461542" width="10.756410256410257" height="10.756410256410257"/><rect x="143.5897435897436" y="215.38461538461542" width="10.756410256410257" height="10.756410256410257"/><rect x="164.10256410256412" y="215.38461538461542" width="10.756410256410257" height="10.756410256410257"/><rect x="174.35897435897436" y="215.38461538461542" width="10.756410256410257" height="10.756410256410257"/><rect x="184.61538461538464" y="215.38461538461542" width="10.756410256410257" height="10.756410256410257"/><rect x="194.8717948717949" y="215.38461538461542" width="10.756410256410257" height="10.756410256410257"/><rect x="225.64102564102566" y="215.38461538461542" width="10.756410256410257" height="10.756410256410257"/><rect x="235.8974358974359" y="215.38461538461542" width="10.756410256410257" height="10.756410256410257"/><rect x="246.1538461538462" y="215.38461538461542" width="10.756410256410257" height="10.756410256410257"/><rect x="256.4102564102564" y="215.38461538461542" width="10.756410256410257" height="10.756410256410257"/><rect x="276.92307692307696" y="215.38461538461542" width="10.756410256410257" height="10.756410256410257"/><rect x="287.1794871794872" y="215.38461538461542" width="10.756410256410257" height="10.756410256410257"/><rect x="297.43589743589746" y="215.38461538461542" width="10.756410256410257" height="10.756410256410257"/><rect x="307.69230769230774" y="215.38461538461542" width="10.756410256410257" height="10.756410256410257"/><rect x="338.4615384615385" y="215.38461538461542" width="10.756410256410257" height="10.756410256410257"/><rect x="379.4871794871795" y="215.38461538461542" width="10.756410256410257" height="10.756410256410257"/><rect x="20.512820512820515" y="225.64102564102566" width="10.756410256410257" height="10.756410256410257"/><rect x="30.769230769230774" y="225.64102564102566" width="10.756410256410257" height="10.756410256410257"/><rect x="51.282051282051285" y="225.64102564102566" width="10.756410256410257" height="10.756410256410257"/><rect x="61.53846153846155" y="225.64102564102566" width="10.756410256410257" height="10.756410256410257"/><rect x="112.82051282051283" y="225.64102564102566" width="10.756410256410257" height="10.756410256410257"/><rect x="143.5897435897436" y="225.64102564102566" width="10.756410256410257" height="10.756410256410257"/><rect x="153.84615384615387" y="225.64102564102566" width="10.756410256410257" height="10.756410256410257"/><rect x="184.61538461538464" y="225.64102564102566" width="10.756410256410257" height="10.756410256410257"/><rect x="215.38461538461542" y="225.64102564102566" width="10.756410256410257" height="10.756410256410257"/><rect x="225.64102564102566" y="225.64102564102566" width="10.756410256410257" height="10.756410256410257"/><rect x="235.8974358974359" y="225.64102564102566" width="10.756410256410257" height="10.756410256410257"/><rect x="256.4102564102564" y="225.64102564102566" width="10.756410256410257" height="10.756410256410257"/><rect x="266.6666666666667" y="225.64102564102566" width="10.756410256410257" height="10.756410256410257"/><rect x="328.20512820512823" y="225.64102564102566" width="10.756410256410257" height="10.756410256410257"/><rect x="358.974358974359" y="225.64102564102566" width="10.756410256410257" height="10.756410256410257"/><rect x="20.512820512820515" y="235.8974358974359" width="10.756410256410257" height="10.756410256410257"/><rect x="30.769230769230774" y="235.8974358974359" width="10.756410256410257" height="10.756410256410257"/><rect x="61.53846153846155" y="235.8974358974359" width="10.756410256410257" height="10.756410256410257"/><rect x="71.7948717948718" y="235.8974358974359" width="10.756410256410257" height="10.756410256410257"/><rect x="82.05128205128206" y="235.8974358974359" width="10.756410256410257" height="10.756410256410257"/><rect x="92.30769230769232" y="235.8974358974359" width="10.756410256410257" height="10.756410256410257"/><rect x="112.82051282051283" y="235.8974358974359" width="10.756410256410257" height="10.756410256410257"/><rect x="143.5897435897436" y="235.8974358974359" width="10.756410256410257" height="10.756410256410257"/><rect x="153.84615384615387" y="235.8974358974359" width="10.756410256410257" height="10.756410256410257"/><rect x="164.10256410256412" y="235.8974358974359" width="10.756410256410257" height="10.756410256410257"/><rect x="174.35897435897436" y="235.8974358974359" width="10.756410256410257" height="10.756410256410257"/><rect x="184.61538461538464" y="235.8974358974359" width="10.756410256410257" height="10.756410256410257"/><rect x="235.8974358974359" y="235.8974358974359" width="10.756410256410257" height="10.756410256410257"/><rect x="246.1538461538462" y="235.8974358974359" width="10.756410256410257" height="10.756410256410257"/><rect x="256.4102564102564" y="235.8974358974359" width="10.756410256410257" height="10.756410256410257"/><rect x="266.6666666666667" y="235.8974358974359" width="10.756410256410257" height="10.756410256410257"/><rect x="276.92307692307696" y="235.8974358974359" width="10.756410256410257" height="10.756410256410257"/><rect x="338.4615384615385" y="235.8974358974359" width="10.756410256410257" height="10.756410256410257"/><rect x="369.2307692307693" y="235.8974358974359" width="10.756410256410257" height="10.756410256410257"/><rect x="41.02564102564103" y="246.1538461538462" width="10.756410256410257" height="10.756410256410257"/><rect x="123.0769230769231" y="246.1538461538462" width="10.756410256410257" height="10.756410256410257"/><rect x="143.5897435897436" y="246.1538461538462" width="10.756410256410257" height="10.756410256410257"/><rect x="174.35897435897436" y="246.1538461538462" width="10.756410256410257" height="10.756410256410257"/><rect x="184.61538461538464" y="246.1538461538462" width="10.756410256410257" height="10.756410256410257"/><rect x="194.8717948717949" y="246.1538461538462" width="10.756410256410257" height="10.756410256410257"/><rect x="225.64102564102566" y="246.1538461538462" width="10.756410256410257" height="10.756410256410257"/><rect x="246.1538461538462" y="246.1538461538462" width="10.756410256410257" height="10.756410256410257"/><rect x="266.6666666666667" y="246.1538461538462" width="10.756410256410257" height="10.756410256410257"/><rect x="276.92307692307696" y="246.1538461538462" width="10.756410256410257" height="10.756410256410257"/><rect x="287.1794871794872" y="246.1538461538462" width="10.756410256410257" height="10.756410256410257"/><rect x="297.43589743589746" y="246.1538461538462" width="10.756410256410257" height="10.756410256410257"/><rect x="317.94871794871796" y="246.1538461538462" width="10.756410256410257" height="10.756410256410257"/><rect x="348.71794871794873" y="246.1538461538462" width="10.756410256410257" height="10.756410256410257"/><rect x="358.974358974359" y="246.1538461538462" width="10.756410256410257" height="10.756410256410257"/><rect x="379.4871794871795" y="246.1538461538462" width="10.756410256410257" height="10.756410256410257"/><rect x="10.256410256410257" y="256.4102564102564" width="10.756410256410257" height="10.756410256410257"/><rect x="30.769230769230774" y="256.4102564102564" width="10.756410256410257" height="10.756410256410257"/><rect x="41.02564102564103" y="256.4102564102564" width="10.756410256410257" height="10.756410256410257"/><rect x="71.7948717948718" y="256.4102564102564" width="10.756410256410257" height="10.756410256410257"/><rect x="102.56410256410257" y="256.4102564102564" width="10.756410256410257" height="10.756410256410257"/><rect x="112.82051282051283" y="256.4102564102564" width="10.756410256410257" height="10.756410256410257"/><rect x="133.33333333333334" y="256.4102564102564" width="10.756410256410257" height="10.756410256410257"/><rect x="143.5897435897436" y="256.4102564102564" width="10.756410256410257" height="10.756410256410257"/><rect x="153.84615384615387" y="256.4102564102564" width="10.756410256410257" height="10.756410256410257"/><rect x="164.10256410256412" y="256.4102564102564" width="10.756410256410257" height="10.756410256410257"/><rect x="174.35897435897436" y="256.4102564102564" width="10.756410256410257" height="10.756410256410257"/><rect x="184.61538461538464" y="256.4102564102564" width="10.756410256410257" height="10.756410256410257"/><rect x="205.12820512820514" y="256.4102564102564" width="10.756410256410257" height="10.756410256410257"/><rect x="215.38461538461542" y="256.4102564102564" width="10.756410256410257" height="10.756410256410257"/><rect x="317.94871794871796" y="256.4102564102564" width="10.756410256410257" height="10.756410256410257"/><rect x="338.4615384615385" y="256.4102564102564" width="10.756410256410257" height="10.756410256410257"/><rect x="348.71794871794873" y="256.4102564102564" width="10.756410256410257" height="10.756410256410257"/><rect x="358.974358974359" y="256.4102564102564" width="10.756410256410257" height="10.756410256410257"/><rect x="369.2307692307693" y="256.4102564102564" width="10.756410256410257" height="10.756410256410257"/><rect x="20.512820512820515" y="266.6666666666667" width="10.756410256410257" height="10.756410256410257"/><rect x="51.282051282051285" y="266.6666666666667" width="10.756410256410257" height="10.756410256410257"/><rect x="61.53846153846155" y="266.6666666666667" width="10.756410256410257" height="10.756410256410257"/><rect x="92.30769230769232" y="266.6666666666667" width="10.756410256410257" height="10.756410256410257"/><rect x="143.5897435897436" y="266.6666666666667" width="10.756410256410257" height="10.756410256410257"/><rect x="164.10256410256412" y="266.6666666666667" width="10.756410256410257" height="10.756410256410257"/><rect x="174.35897435897436" y="266.6666666666667" width="10.756410256410257" height="10.756410256410257"/><rect x="184.61538461538464" y="266.6666666666667" width="10.756410256410257" height="10.756410256410257"/><rect x="194.8717948717949" y="266.6666666666667" width="10.756410256410257" height="10.756410256410257"/><rect x="205.12820512820514" y="266.6666666666667" width="10.756410256410257" height="10.756410256410257"/><rect x="215.38461538461542" y="266.6666666666667" width="10.756410256410257" height="10.756410256410257"/><rect x="225.64102564102566" y="266.6666666666667" width="10.756410256410257" height="10.756410256410257"/><rect x="246.1538461538462" y="266.6666666666667" width="10.756410256410257" height="10.756410256410257"/><rect x="276.92307692307696" y="266.6666666666667" width="10.756410256410257" height="10.756410256410257"/><rect x="287.1794871794872" y="266.6666666666667" width="10.756410256410257" height="10.756410256410257"/><rect x="297.43589743589746" y="266.6666666666667" width="10.756410256410257" height="10.756410256410257"/><rect x="317.94871794871796" y="266.6666666666667" width="10.756410256410257" height="10.756410256410257"/><rect x="328.20512820512823" y="266.6666666666667" width="10.756410256410257" height="10.756410256410257"/><rect x="338.4615384615385" y="266.6666666666667" width="10.756410256410257" height="10.756410256410257"/><rect x="358.974358974359" y="266.6666666666667" width="10.756410256410257" height="10.756410256410257"/><rect x="379.4871794871795" y="266.6666666666667" width="10.756410256410257" height="10.756410256410257"/><rect x="20.512820512820515" y="276.92307692307696" width="10.756410256410257" height="10.756410256410257"/><rect x="30.769230769230774" y="276.92307692307696" width="10.756410256410257" height="10.756410256410257"/><rect x="41.02564102564103" y="276.92307692307696" width="10.756410256410257" height="10.756410256410257"/><rect x="51.282051282051285" y="276.92307692307696" width="10.756410256410257" height="10.756410256410257"/><rect x="71.7948717948718" y="276.92307692307696" width="10.756410256410257" height="10.756410256410257"/><rect x="82.05128205128206" y="276.92307692307696" width="10.756410256410257" height="10.756410256410257"/><rect x="92.30769230769232" y="276.92307692307696" width="10.756410256410257" height="10.756410256410257"/><rect x="102.56410256410257" y="276.92307692307696" width="10.756410256410257" height="10.756410256410257"/><rect x="123.0769230769231" y="276.92307692307696" width="10.756410256410257" height="10.756410256410257"/><rect x="153.84615384615387" y="276.92307692307696" width="10.756410256410257" height="10.756410256410257"/><rect x="164.10256410256412" y="276.92307692307696" width="10.756410256410257" height="10.756410256410257"/><rect x="194.8717948717949" y="276.92307692307696" width="10.756410256410257" height="10.756410256410257"/><rect x="205.12820512820514" y="276.92307692307696" width="10.756410256410257" height="10.756410256410257"/><rect x="215.38461538461542" y="276.92307692307696" width="10.756410256410257" height="10.756410256410257"/><rect x="225.64102564102566" y="276.92307692307696" width="10.756410256410257" height="10.756410256410257"/><rect x="235.8974358974359" y="276.92307692307696" width="10.756410256410257" height="10.756410256410257"/><rect x="256.4102564102564" y="276.92307692307696" width="10.756410256410257" height="10.756410256410257"/><rect x="266.6666666666667" y="276.92307692307696" width="10.756410256410257" height="10.756410256410257"/><rect x="276.92307692307696" y="276.92307692307696" width="10.756410256410257" height="10.756410256410257"/><rect x="328.20512820512823" y="276.92307692307696" width="10.756410256410257" height="10.756410256410257"/><rect x="338.4615384615385" y="276.92307692307696" width="10.756410256410257" height="10.756410256410257"/><rect x="358.974358974359" y="276.92307692307696" width="10.756410256410257" height="10.756410256410257"/><rect x="369.2307692307693" y="276.92307692307696" width="10.756410256410257" height="10.756410256410257"/><rect x="10.256410256410257" y="287.1794871794872" width="10.756410256410257" height="10.756410256410257"/><rect x="30.769230769230774" y="287.1794871794872" width="10.756410256410257" height="10.756410256410257"/><rect x="41.02564102564103" y="287.1794871794872" width="10.756410256410257" height="10.756410256410257"/><rect x="51.282051282051285" y="287.1794871794872" width="10.756410256410257" height="10.756410256410257"/><rect x="61.53846153846155" y="287.1794871794872" width="10.756410256410257" height="10.756410256410257"/><rect x="102.56410256410257" y="287.1794871794872" width="10.756410256410257" height="10.756410256410257"/><rect x="112.82051282051283" y="287.1794871794872" width="10.756410256410257" height="10.756410256410257"/><rect x="123.0769230769231" y="287.1794871794872" width="10.756410256410257" height="10.756410256410257"/><rect x="164.10256410256412" y="287.1794871794872" width="10.756410256410257" height="10.756410256410257"/><rect x="174.35897435897436" y="287.1794871794872" width="10.756410256410257" height="10.756410256410257"/><rect x="184.61538461538464" y="287.1794871794872" width="10.756410256410257" height="10.756410256410257"/><rect x="194.8717948717949" y="287.1794871794872" width="10.756410256410257" height="10.756410256410257"/><rect x="225.64102564102566" y="287.1794871794872" width="10.756410256410257" height="10.756410256410257"/><rect x="256.4102564102564" y="287.1794871794872" width="10.756410256410257" height="10.756410256410257"/><rect x="287.1794871794872" y="287.1794871794872" width="10.756410256410257" height="10.756410256410257"/><rect x="307.69230769230774" y="287.1794871794872" width="10.756410256410257" height="10.756410256410257"/><rect x="379.4871794871795" y="287.1794871794872" width="10.756410256410257" height="10.756410256410257"/><rect x="41.02564102564103" y="297.43589743589746" width="10.756410256410257" height="10.756410256410257"/><rect x="61.53846153846155" y="297.43589743589746" width="10.756410256410257" height="10.756410256410257"/><rect x="71.7948717948718" y="297.43589743589746" width="10.756410256410257" height="10.756410256410257"/><rect x="82.05128205128206" y="297.43589743589746" width="10.756410256410257" height="10.756410256410257"/><rect x="92.30769230769232" y="297.43589743589746" width="10.756410256410257" height="10.756410256410257"/><rect x="112.82051282051283" y="297.43589743589746" width="10.756410256410257" height="10.756410256410257"/><rect x="133.33333333333334" y="297.43589743589746" width="10.756410256410257" height="10.756410256410257"/><rect x="143.5897435897436" y="297.43589743589746" width="10.756410256410257" height="10.756410256410257"/><rect x="164.10256410256412" y="297.43589743589746" width="10.756410256410257" height="10.756410256410257"/><rect x="174.35897435897436" y="297.43589743589746" width="10.756410256410257" height="10.756410256410257"/><rect x="225.64102564102566" y="297.43589743589746" width="10.756410256410257" height="10.756410256410257"/><rect x="246.1538461538462" y="297.43589743589746" width="10.756410256410257" height="10.756410256410257"/><rect x="266.6666666666667" y="297.43589743589746" width="10.756410256410257" height="10.756410256410257"/><rect x="287.1794871794872" y="297.43589743589746" width="10.756410256410257" height="10.756410256410257"/><rect x="297.43589743589746" y="297.43589743589746" width="10.756410256410257" height="10.756410256410257"/><rect x="307.69230769230774" y="297.43589743589746" width="10.756410256410257" height="10.756410256410257"/><rect x="317.94871794871796" y="297.43589743589746" width="10.756410256410257" height="10.756410256410257"/><rect x="328.20512820512823" y="297.43589743589746" width="10.756410256410257" height="10.756410256410257"/><rect x="338.4615384615385" y="297.43589743589746" width="10.756410256410257" height="10.756410256410257"/><rect x="369.2307692307693" y="297.43589743589746" width="10.756410256410257" height="10.756410256410257"/><rect x="92.30769230769232" y="307.69230769230774" width="10.756410256410257" height="10.756410256410257"/><rect x="102.56410256410257" y="307.69230769230774" width="10.756410256410257" height="10.756410256410257"/><rect x="112.82051282051283" y="307.69230769230774" width="10.756410256410257" height="10.756410256410257"/><rect x="133.33333333333334" y="307.69230769230774" width="10.756410256410257" height="10.756410256410257"/><rect x="164.10256410256412" y="307.69230769230774" width="10.756410256410257" height="10.756410256410257"/><rect x="184.61538461538464" y="307.69230769230774" width="10.756410256410257" height="10.756410256410257"/><rect x="235.8974358974359" y="307.69230769230774" width="10.756410256410257" height="10.756410256410257"/><rect x="246.1538461538462" y="307.69230769230774" width="10.756410256410257" height="10.756410256410257"/><rect x="256.4102564102564" y="307.69230769230774" width="10.756410256410257" height="10.756410256410257"/><rect x="266.6666666666667" y="307.69230769230774" width="10.756410256410257" height="10.756410256410257"/><rect x="297.43589743589746" y="307.69230769230774" width="10.756410256410257" height="10.756410256410257"/><rect x="338.4615384615385" y="307.69230769230774" width="10.756410256410257" height="10.756410256410257"/><rect x="348.71794871794873" y="307.69230769230774" width="10.756410256410257" height="10.756410256410257"/><rect x="358.974358974359" y="307.69230769230774" width="10.756410256410257" height="10.756410256410257"/><rect x="369.2307692307693" y="307.69230769230774" width="10.756410256410257" height="10.756410256410257"/><rect x="379.4871794871795" y="307.69230769230774" width="10.756410256410257" height="10.756410256410257"/><rect x="92.30769230769232" y="317.94871794871796" width="10.756410256410257" height="10.756410256410257"/><rect x="102.56410256410257" y="317.94871794871796" width="10.756410256410257" height="10.756410256410257"/><rect x="133.33333333333334" y="317.94871794871796" width="10.756410256410257" height="10.756410256410257"/><rect x="143.5897435897436" y="317.94871794871796" width="10.756410256410257" height="10.756410256410257"/><rect x="205.12820512820514" y="317.94871794871796" width="10.756410256410257" height="10.756410256410257"/><rect x="215.38461538461542" y="317.94871794871796" width="10.756410256410257" height="10.756410256410257"/><rect x="225.64102564102566" y="317.94871794871796" width="10.756410256410257" height="10.756410256410257"/><rect x="235.8974358974359" y="317.94871794871796" width="10.756410256410257" height="10.756410256410257"/><rect x="297.43589743589746" y="317.94871794871796" width="10.756410256410257" height="10.756410256410257"/><rect x="317.94871794871796" y="317.94871794871796" width="10.756410256410257" height="10.756410256410257"/><rect x="338.4615384615385" y="317.94871794871796" width="10.756410256410257" height="10.756410256410257"/><rect x="348.71794871794873" y="317.94871794871796" width="10.756410256410257" height="10.756410256410257"/><rect x="369.2307692307693" y="317.94871794871796" width="10.756410256410257" height="10.756410256410257"/><rect x="379.4871794871795" y="317.94871794871796" width="10.756410256410257" height="10.756410256410257"/><rect x="112.82051282051283" y="328.20512820512823" width="10.756410256410257" height="10.756410256410257"/><rect x="123.0769230769231" y="328.20512820512823" width="10.756410256410257" height="10.756410256410257"/><rect x="143.5897435897436" y="328.20512820512823" width="10.756410256410257" height="10.756410256410257"/><rect x="174.35897435897436" y="328.20512820512823" width="10.756410256410257" height="10.756410256410257"/><rect x="225.64102564102566" y="328.20512820512823" width="10.756410256410257" height="10.756410256410257"/><rect x="235.8974358974359" y="328.20512820512823" width="10.756410256410257" height="10.756410256410257"/><rect x="246.1538461538462" y="328.20512820512823" width="10.756410256410257" height="10.756410256410257"/><rect x="287.1794871794872" y="328.20512820512823" width="10.756410256410257" height="10.756410256410257"/><rect x="297.43589743589746" y="328.20512820512823" width="10.756410256410257" height="10.756410256410257"/><rect x="338.4615384615385" y="328.20512820512823" width="10.756410256410257" height="10.756410256410257"/><rect x="348.71794871794873" y="328.20512820512823" width="10.756410256410257" height="10.756410256410257"/><rect x="112.82051282051283" y="338.4615384615385" width="10.756410256410257" height="10.756410256410257"/><rect x="123.0769230769231" y="338.4615384615385" width="10.756410256410257" height="10.756410256410257"/><rect x="174.35897435897436" y="338.4615384615385" width="10.756410256410257" height="10.756410256410257"/><rect x="184.61538461538464" y="338.4615384615385" width="10.756410256410257" height="10.756410256410257"/><rect x="205.12820512820514" y="338.4615384615385" width="10.756410256410257" height="10.756410256410257"/><rect x="225.64102564102566" y="338.4615384615385" width="10.756410256410257" height="10.756410256410257"/><rect x="246.1538461538462" y="338.4615384615385" width="10.756410256410257" height="10.756410256410257"/><rect x="276.92307692307696" y="338.4615384615385" width="10.756410256410257" height="10.756410256410257"/><rect x="297.43589743589746" y="338.4615384615385" width="10.756410256410257" height="10.756410256410257"/><rect x="307.69230769230774" y="338.4615384615385" width="10.756410256410257" height="10.756410256410257"/><rect x="317.94871794871796" y="338.4615384615385" width="10.756410256410257" height="10.756410256410257"/><rect x="328.20512820512823" y="338.4615384615385" width="10.756410256410257" height="10.756410256410257"/><rect x="338.4615384615385" y="338.4615384615385" width="10.756410256410257" height="10.756410256410257"/><rect x="348.71794871794873" y="338.4615384615385" width="10.756410256410257" height="10.756410256410257"/><rect x="369.2307692307693" y="338.4615384615385" width="10.756410256410257" height="10.756410256410257"/><rect x="92.30769230769232" y="348.71794871794873" width="10.756410256410257" height="10.756410256410257"/><rect x="102.56410256410257" y="348.71794871794873" width="10.756410256410257" height="10.756410256410257"/><rect x="123.0769230769231" y="348.71794871794873" width="10.756410256410257" height="10.756410256410257"/><rect x="143.5897435897436" y="348.71794871794873" width="10.756410256410257" height="10.756410256410257"/><rect x="174.35897435897436" y="348.71794871794873" width="10.756410256410257" height="10.756410256410257"/><rect x="194.8717948717949" y="348.71794871794873" width="10.756410256410257" height="10.756410256410257"/><rect x="205.12820512820514" y="348.71794871794873" width="10.756410256410257" height="10.756410256410257"/><rect x="215.38461538461542" y="348.71794871794873" width="10.756410256410257" height="10.756410256410257"/><rect x="225.64102564102566" y="348.71794871794873" width="10.756410256410257" height="10.756410256410257"/><rect x="266.6666666666667" y="348.71794871794873" width="10.756410256410257" height="10.756410256410257"/><rect x="276.92307692307696" y="348.71794871794873" width="10.756410256410257" height="10.756410256410257"/><rect x="297.43589743589746" y="348.71794871794873" width="10.756410256410257" height="10.756410256410257"/><rect x="317.94871794871796" y="348.71794871794873" width="10.756410256410257" height="10.756410256410257"/><rect x="338.4615384615385" y="348.71794871794873" width="10.756410256410257" height="10.756410256410257"/><rect x="92.30769230769232" y="358.974358974359" width="10.756410256410257" height="10.756410256410257"/><rect x="133.33333333333334" y="358.974358974359" width="10.756410256410257" height="10.756410256410257"/><rect x="153.84615384615387" y="358.974358974359" width="10.756410256410257" height="10.756410256410257"/><rect x="174.35897435897436" y="358.974358974359" width="10.756410256410257" height="10.756410256410257"/><rect x="205.12820512820514" y="358.974358974359" width="10.756410256410257" height="10.756410256410257"/><rect x="225.64102564102566" y="358.974358974359" width="10.756410256410257" height="10.756410256410257"/><rect x="266.6666666666667" y="358.974358974359" width="10.756410256410257" height="10.756410256410257"/><rect x="287.1794871794872" y="358.974358974359" width="10.756410256410257" height="10.756410256410257"/><rect x="297.43589743589746" y="358.974358974359" width="10.756410256410257" height="10.756410256410257"/><rect x="317.94871794871796" y="358.974358974359" width="10.756410256410257" height="10.756410256410257"/><rect x="338.4615384615385" y="358.974358974359" width="10.756410256410257" height="10.756410256410257"/><rect x="358.974358974359" y="358.974358974359" width="10.756410256410257" height="10.756410256410257"/><rect x="369.2307692307693" y="358.974358974359" width="10.756410256410257" height="10.756410256410257"/><rect x="123.0769230769231" y="369.2307692307693" width="10.756410256410257" height="10.756410256410257"/><rect x="153.84615384615387" y="369.2307692307693" width="10.756410256410257" height="10.756410256410257"/><rect x="184.61538461538464" y="369.2307692307693" width="10.756410256410257" height="10.756410256410257"/><rect x="194.8717948717949" y="369.2307692307693" width="10.756410256410257" height="10.756410256410257"/><rect x="235.8974358974359" y="369.2307692307693" width="10.756410256410257" height="10.756410256410257"/><rect x="246.1538461538462" y="369.2307692307693" width="10.756410256410257" height="10.756410256410257"/><rect x="256.4102564102564" y="369.2307692307693" width="10.756410256410257" height="10.756410256410257"/><rect x="266.6666666666667" y="369.2307692307693" width="10.756410256410257" height="10.756410256410257"/><rect x="276.92307692307696" y="369.2307692307693" width="10.756410256410257" height="10.756410256410257"/><rect x="307.69230769230774" y="369.2307692307693" width="10.756410256410257" height="10.756410256410257"/><rect x="348.71794871794873" y="369.2307692307693" width="10.756410256410257" height="10.756410256410257"/><rect x="358.974358974359" y="369.2307692307693" width="10.756410256410257" height="10.756410256410257"/><rect x="112.82051282051283" y="379.4871794871795" width="10.756410256410257" height="10.756410256410257"/><rect x="123.0769230769231" y="379.4871794871795" width="10.756410256410257" height="10.756410256410257"/><rect x="164.10256410256412" y="379.4871794871795" width="10.756410256410257" height="10.756410256410257"/><rect x="184.61538461538464" y="379.4871794871795" width="10.756410256410257" height="10.756410256410257"/><rect x="194.8717948717949" y="379.4871794871795" width="10.756410256410257" height="10.756410256410257"/><rect x="225.64102564102566" y="379.4871794871795" width="10.756410256410257" height="10.756410256410257"/><rect x="235.8974358974359" y="379.4871794871795" width="10.756410256410257" height="10.756410256410257"/><rect x="246.1538461538462" y="379.4871794871795" width="10.756410256410257" height="10.756410256410257"/><rect x="256.4102564102564" y="379.4871794871795" width="10.756410256410257" height="10.756410256410257"/><rect x="266.6666666666667" y="379.4871794871795" width="10.756410256410257" height="10.756410256410257"/><rect x="276.92307692307696" y="379.4871794871795" width="10.756410256410257" height="10.756410256410257"/><rect x="307.69230769230774" y="379.4871794871795" width="10.756410256410257" height="10.756410256410257"/><rect x="328.20512820512823" y="379.4871794871795" width="10.756410256410257" height="10.756410256410257"/><rect x="348.71794871794873" y="379.4871794871795" width="10.756410256410257" height="10.756410256410257"/><rect x="358.974358974359" y="379.4871794871795" width="10.756410256410257" height="10.756410256410257"/><rect x="369.2307692307693" y="379.4871794871795" width="10.756410256410257" height="10.756410256410257"/><rect x="379.4871794871795" y="379.4871794871795" width="10.756410256410257" height="10.756410256410257"/></g><path fill="#000000" fill-rule="evenodd" d="M 10.256410256410257,10.256410256410257 H 82.05128205128206 V 82.05128205128206 H 10.256410256410257 Z M 20.512820512820515,20.512820512820515 H 71.7948717948718 V 71.7948717948718 H 20.512820512820515 Z"/><rect x="30.769230769230774" y="30.769230769230774" width="30.769230769230766" height="30.769230769230766" fill="#000000"/><path fill="#000000" fill-rule="evenodd" d="M 317.94871794871796,10.256410256410257 H 389.7435897435897 V 82.05128205128206 H 317.94871794871796 Z M 328.20512820512823,20.512820512820515 H 379.48717948717945 V 71.7948717948718 H 328.20512820512823 Z"/><rect x="338.46153846153845" y="30.769230769230774" width="30.769230769230766" height="30.769230769230766" fill="#000000"/><path fill="#000000" fill-rule="evenodd" d="M 10.256410256410257,317.94871794871796 H 82.05128205128206 V 389.7435897435897 H 10.256410256410257 Z M 20.512820512820515,328.20512820512823 H 71.7948717948718 V 379.48717948717945 H 20.512820512820515 Z"/><rect x="30.769230769230774" y="338.46153846153845" width="30.769230769230766" height="30.769230769230766" fill="#000000"/></svg>