<svg width="80" height="80" viewBox="0 0 80 80" fill="none" xmlns="http://www.w3.org/2000/svg">
<path d="M59.5 42C50.3987 42 43 49.3985 43 58.4999C43 67.6012 50.3987 75 59.5 75C68.6013 75 76 67.6012 76 58.4999C76 49.3985 68.6013 42 59.5 42Z" fill="#FFA0D4"/>
<path d="M58.5944 5C67.6433 5 75 12.3565 75 21.4057C75 30.4547 67.6433 37.8108 58.5944 37.8108C52.8868 37.8107 47.6757 34.9036 44.6443 30.0289C43.6428 28.4248 41.8876 27.45 39.9998 27.45C38.1121 27.4501 36.3573 28.4249 35.3559 30.0289C34.0175 32.1827 32.1826 34.0175 30.0289 35.3559C28.4249 36.3574 27.4501 38.1122 27.45 39.9998C27.45 41.8876 28.4248 43.6428 30.0289 44.6444C34.9035 47.6665 37.8107 52.8868 37.8107 58.5943C37.8107 67.6439 30.4547 75 21.4056 75C12.3566 75 5 67.6439 5 58.5943C5.00006 52.8868 7.90719 47.6756 12.7818 44.6444C14.386 43.6428 15.3607 41.8876 15.3607 39.9998C15.3607 38.1121 14.3859 36.3574 12.7818 35.3559C7.90725 32.3337 5.00012 27.1134 5 21.4057C5 12.3565 12.3566 5 21.4056 5C27.1134 5.00006 32.3247 7.90725 35.3559 12.7818C36.3573 14.3859 38.1121 15.3606 39.9998 15.3607C41.8876 15.3607 43.6428 14.386 44.6443 12.7818C47.6666 7.90719 52.8868 5.00006 58.5944 5ZM20.1168 13.355C18.8362 12.0744 16.4119 12.422 14.702 14.1318C12.9922 15.8416 12.6447 18.2659 13.9253 19.5465C15.206 20.8272 17.6302 20.4796 19.34 18.7698C21.0499 17.06 21.3974 14.6357 20.1168 13.355Z" fill="#333333"/>
</svg>
